<?xml version="1.0" encoding="UTF-8"?>
<svg xmlns="http://www.w3.org/2000/svg" xmlns:xlink="http://www.w3.org/1999/xlink" width="95px" height="95px" viewBox="0 0 95 95" version="1.1">
<g id="surface1">
<path style=" stroke:none;fill-rule:nonzero;fill:rgb(100%,100%,100%);fill-opacity:1;" d="M 10.382812 3.800781 C 9.847656 3.800781 9.339844 4.023438 8.980469 4.417969 C 8.621094 4.8125 8.441406 5.339844 8.492188 5.871094 L 15.175781 80.78125 C 15.246094 81.5625 15.792969 82.222656 16.546875 82.4375 L 46.964844 91.125 C 47.304688 91.222656 47.667969 91.222656 48.007812 91.125 L 78.457031 82.4375 C 79.210938 82.222656 79.757812 81.5625 79.824219 80.78125 L 86.507812 5.871094 C 86.558594 5.339844 86.378906 4.8125 86.019531 4.417969 C 85.660156 4.023438 85.152344 3.800781 84.617188 3.800781 Z M 12.460938 7.601562 L 82.539062 7.601562 L 76.160156 79.144531 L 47.488281 87.324219 L 18.847656 79.144531 Z M 36.101562 19 C 35.050781 19 34.199219 19.851562 34.199219 20.898438 L 34.199219 56.292969 L 23.308594 53.277344 C 22.738281 53.121094 22.125 53.238281 21.652344 53.597656 C 21.179688 53.953125 20.902344 54.515625 20.898438 55.105469 L 20.898438 64.503906 C 20.902344 65.355469 21.46875 66.105469 22.292969 66.332031 L 43.191406 72.128906 C 43.761719 72.289062 44.375 72.171875 44.847656 71.8125 C 45.320312 71.453125 45.597656 70.894531 45.601562 70.300781 L 45.601562 20.898438 C 45.601562 19.851562 44.75 19 43.699219 19 Z M 51.300781 19 C 50.25 19 49.398438 19.851562 49.398438 20.898438 L 49.398438 53.199219 C 49.398438 53.761719 49.648438 54.292969 50.074219 54.652344 C 50.503906 55.015625 51.070312 55.167969 51.621094 55.074219 L 62.542969 53.191406 L 62.316406 56.558594 L 50.796875 59.726562 C 49.972656 59.953125 49.402344 60.703125 49.398438 61.558594 L 49.398438 70.300781 C 49.398438 70.894531 49.675781 71.453125 50.148438 71.8125 C 50.621094 72.171875 51.234375 72.289062 51.804688 72.132812 L 70.804688 66.910156 C 71.570312 66.695312 72.125 66.03125 72.191406 65.238281 L 74.195312 41.964844 C 74.246094 41.386719 74.03125 40.816406 73.609375 40.421875 C 73.1875 40.023438 72.609375 39.835938 72.035156 39.917969 L 60.800781 41.511719 L 60.800781 30.398438 L 73.441406 30.398438 C 74.429688 30.398438 75.25 29.644531 75.335938 28.664062 L 75.992188 21.0625 C 76.039062 20.53125 75.859375 20.007812 75.5 19.617188 C 75.140625 19.222656 74.632812 19 74.101562 19 Z M 38 22.800781 L 41.800781 22.800781 L 41.800781 67.800781 L 24.699219 63.058594 L 24.699219 57.605469 L 35.589844 60.625 C 36.164062 60.785156 36.777344 60.667969 37.25 60.308594 C 37.722656 59.949219 38 59.390625 38 58.796875 Z M 53.199219 22.800781 L 72.027344 22.800781 L 71.699219 26.601562 L 58.898438 26.601562 C 57.851562 26.601562 57 27.449219 57 28.5 L 57 43.699219 C 57 44.25 57.238281 44.773438 57.65625 45.136719 C 58.070312 45.496094 58.621094 45.660156 59.167969 45.582031 L 70.207031 44.015625 L 68.519531 63.59375 L 53.199219 67.804688 L 53.199219 63.007812 L 64.628906 59.863281 C 65.410156 59.652344 65.964844 58.96875 66.019531 58.160156 L 66.496094 51.035156 C 66.535156 50.453125 66.304688 49.886719 65.871094 49.496094 C 65.441406 49.105469 64.851562 48.9375 64.277344 49.035156 L 53.199219 50.945312 Z M 53.199219 22.800781 "/>
</g>
</svg>
